Coordinates
version=1
nRows=24
nColumns=22
inDegrees=yes

Units are S.I. units (second, meters, Newtons, ...)
If the header above contains a line with 'inDegrees', this indicates whether rotational values are in degrees (yes) or radians (no).

endheader
time	pelvis_tilt	pelvis_list	pelvis_rotation	pelvis_tx	pelvis_ty	pelvis_tz	hip_flexion_r	hip_adduction_r	hip_rotation_r	knee_angle_r	ankle_angle_r	subtalar_angle_r	hip_flexion_l	hip_adduction_l	hip_rotation_l	knee_angle_l	ankle_angle_l	subtalar_angle_l	lumbar_extension	lumbar_bending	lumbar_rotation
      0.01000000	     -2.23722254	      3.74403629	    177.87164967	      0.05800761	      1.02342867	      0.84317787	     -0.72618606	      6.30094656	     -4.67141518	     -9.74892899	      8.45317736	     -5.06527677	      0.13263055	     -2.97030277	     -5.91991596	    -12.12066593	     11.56931769	     -1.68826625	    -10.33614182	      3.53665303	      2.77289033
      0.02000000	     -2.23199188	      3.75029956	    177.85341402	      0.05789776	      1.02341765	      0.84315497	     -0.72489479	      6.30723337	     -4.67351820	     -9.75075956	      8.45325895	     -5.06485982	      0.12942150	     -2.97510437	     -5.91780276	    -12.12290500	     11.56973211	     -1.68921072	    -10.33970144	      3.52461674	      2.77021102
      0.03000000	     -2.22157609	      3.76282517	    177.77062664	      0.05777299	      1.02340156	      0.84304563	     -0.69678528	      6.31736654	     -4.61326964	     -9.79893064	      8.46025848	     -5.05779252	      0.10571614	     -2.98733107	     -5.99276512	    -12.09697619	     11.58427632	     -1.71241639	    -10.34166641	      3.50942212	      2.85631925
      0.04000000	     -2.21277667	      3.77058751	    177.74832151	      0.05764843	      1.02338945	      0.84302170	     -0.69376044	      6.32485180	     -4.61450295	     -9.79892417	      8.46026350	     -5.05737147	      0.10185802	     -2.99381787	     -5.99292242	    -12.09537256	     11.58462455	     -1.71294259	    -10.34740776	      3.49416901	      2.84873731
      0.05000000	     -2.19000746	      3.77971598	    177.65187366	      0.05748655	      1.02336490	      0.84290082	     -0.65748007	      6.33203527	     -4.53133188	     -9.84285391	      8.45895347	     -5.05061024	      0.06758240	     -3.00069082	     -6.08921012	    -12.03073916	     11.58833924	     -1.72806715	    -10.33285371	      3.47401144	      2.92366355
      0.06000000	     -2.16800217	      3.78535613	    177.59378873	      0.05734030	      1.02334169	      0.84283608	     -0.63686563	      6.33674647	     -4.48168690	     -9.85468232	      8.46001138	     -5.04541354	      0.04972246	     -3.00477154	     -6.14814909	    -11.98748949	     11.58472674	     -1.73684985	    -10.32237741	      3.45377648	      2.94699673
      0.07000000	     -2.14377800	      3.79072619	    177.54588160	      0.05719642	      1.02331665	      0.84278931	     -0.61399905	      6.34066227	     -4.45172522	     -9.86521499	      8.45739999	     -5.04104687	      0.02920929	     -3.00712900	     -6.18977992	    -11.93225600	     11.57978419	     -1.74100553	    -10.30953129	      3.43465395	      2.95968940
      0.08000000	     -2.12178866	      3.79918789	    177.52059474	      0.05704895	      1.02329237	      0.84277218	     -0.59874717	      6.34855066	     -4.44637281	     -9.86680123	      8.45536730	     -5.03948535	      0.00955010	     -3.01315221	     -6.21796704	    -11.87736960	     11.58194983	     -1.74141603	    -10.29755789	      3.42296514	      2.93273450
      0.09000000	     -2.08601264	      3.79422540	    177.46941651	      0.05689922	      1.02326056	      0.84272318	     -0.57121158	      6.34206401	     -4.40210730	     -9.86286622	      8.44825532	     -5.03175819	     -0.01351933	     -3.00292548	     -6.25964452	    -11.79342763	     11.55516781	     -1.74129956	    -10.27045474	      3.39404296	      2.95452207
      0.10000000	     -2.05957118	      3.80010250	    177.45130610	      0.05674894	      1.02323440	      0.84271604	     -0.55757141	      6.34764033	     -4.39803194	     -9.85312300	      8.44819997	     -5.02936199	     -0.03206333	     -3.00682300	     -6.29280068	    -11.72893461	     11.55607366	     -1.74090894	    -10.25393130	      3.38372394	      2.91818983
      0.11000000	     -2.02027916	      3.79237374	    177.41861584	      0.05658346	      1.02320163	      0.84268251	     -0.53665203	      6.34002176	     -4.36323050	     -9.83193345	      8.44008761	     -5.01905589	     -0.05090596	     -2.99465082	     -6.32244024	    -11.64117078	     11.52555808	     -1.73761747	    -10.21963040	      3.35496563	      2.91088719
      0.12000000	     -1.99140941	      3.79694324	    177.40598805	      0.05641503	      1.02317425	      0.84266530	     -0.52706031	      6.34566608	     -4.36394257	     -9.81207511	      8.44069369	     -5.01634360	     -0.06739915	     -2.99917593	     -6.35322860	    -11.57620708	     11.52752998	     -1.73684330	    -10.19846905	      3.34375508	      2.86841209
      0.13000000	     -1.95755789	      3.79777366	    177.39435790	      0.05623587	      1.02314485	      0.84264958	     -0.51843467	      6.34814494	     -4.36025821	     -9.78123086	      8.43833950	     -5.01242369	     -0.08102500	     -2.99903337	     -6.37867935	    -11.50582830	     11.52344052	     -1.73501374	    -10.17126178	      3.33093686	      2.82666549
      0.14000000	     -1.92182199	      3.79710345	    177.38436263	      0.05605676	      1.02311373	      0.84263309	     -0.50991910	      6.34964834	     -4.35388106	     -9.74635663	      8.43413038	     -5.00779241	     -0.09028131	     -2.99743230	     -6.39835377	    -11.43922238	     11.51548622	     -1.73237006	    -10.14351814	      3.31753994	      2.78239323
      0.15000000	     -1.88417851	      3.79554539	    177.37626691	      0.05588213	      1.02308092	      0.84262274	     -0.50072508	      6.35024036	     -4.34685431	     -9.70817081	      8.42867887	     -5.00246760	     -0.09376910	     -2.99471036	     -6.41246794	    -11.37866446	     11.50494155	     -1.72894046	    -10.11658395	      3.30620024	      2.73509700
      0.16000000	     -1.84544153	      3.79411416	    177.37022029	      0.05571468	      1.02304540	      0.84261486	     -0.49055027	      6.35085480	     -4.34069576	     -9.66928435	      8.42225321	     -4.99648309	     -0.09044946	     -2.99278194	     -6.42123250	    -11.32639432	     11.49328300	     -1.72498087	    -10.09146782	      3.29669655	      2.68517329
      0.17000000	     -1.80844583	      3.79394807	    177.36430596	      0.05555569	      1.02301052	      0.84260564	     -0.47988864	      6.35341460	     -4.33729195	     -9.63346972	      8.41651747	     -4.99077196	     -0.08336574	     -2.99228723	     -6.42798096	    -11.28502728	     11.48412046	     -1.72159180	    -10.07172617	      3.28905715	      2.63588228
      0.18000000	     -1.77239558	      3.79416924	    177.35850530	      0.05540530	      1.02297786	      0.84260694	     -0.46863082	      6.35499045	     -4.33453489	     -9.59948363	      8.41058266	     -4.98485426	     -0.07207837	     -2.99224618	     -6.43330723	    -11.25217525	     11.47643004	     -1.71897820	    -10.05623663	      3.28442614	      2.58817188
      0.19000000	     -1.72114016	      3.79264501	    177.35952505	      0.05526985	      1.02292072	      0.84261998	     -0.44157303	      6.35658135	     -4.32893614	     -9.56134765	      8.39351076	     -4.96925000	     -0.03248068	     -2.99074671	     -6.41924280	    -11.23799218	     11.45938452	     -1.71561979	    -10.02445154	      3.27902169	      2.53540247
      0.20000000	     -1.69383062	      3.79583466	    177.34677114	      0.05513260	      1.02289463	      0.84262666	     -0.42946786	      6.35913983	     -4.33115762	     -9.54583180	      8.39499076	     -4.96538374	     -0.02553585	     -2.99291589	     -6.43792199	    -11.21413288	     11.46419996	     -1.71713719	    -10.02484355	      3.27856125	      2.49854871
      0.21000000	     -1.66752801	      3.79750874	    177.33163063	      0.05500231	      1.02286979	      0.84262521	     -0.41974126	      6.36095102	     -4.32552401	     -9.52654554	      8.39331313	     -4.96086214	     -0.01487462	     -2.99387737	     -6.45408740	    -11.19985164	     11.46445097	     -1.71964651	    -10.02836336	      3.27552336	      2.46345358
      0.22000000	     -1.65010180	      3.80061152	    177.31515872	      0.05490169	      1.02285601	      0.84262893	     -0.41284725	      6.36274839	     -4.32818116	     -9.51566752	      8.39398223	     -4.96023020	     -0.00837516	     -2.99468398	     -6.45522507	    -11.19431614	     11.46469139	     -1.71995236	    -10.04979741	      3.27116848	      2.45447675
      0.23000000	     -1.61140214	      3.80029795	    177.28976183	      0.05479955	      1.02281313	      0.84261666	     -0.38711045	      6.36351492	     -4.29282160	     -9.49783305	      8.38302477	     -4.94631030	      0.02537961	     -2.99527529	     -6.49646550	    -11.19701004	     11.45779429	     -1.72914127	    -10.04500144	      3.26616941	      2.42075487
      0.24000000	     -1.57938668	      3.80320227	    177.25977090	      0.05472484	      1.02277361	      0.84259649	     -0.35282724	      6.36597415	     -4.27544144	     -9.50684080	      8.38524401	     -4.93745194	      0.04979868	     -2.99815882	     -6.52656360	    -11.19469834	     11.46274157	     -1.73542486	    -10.05564270	      3.26193017	      2.41661374
